<svg width="26" height="26" viewBox="0 0 26 26" fill="none" xmlns="http://www.w3.org/2000/svg">
<path fill-rule="evenodd" clip-rule="evenodd" d="M5 0H21C23.7614 0 26 2.23858 26 5V21C26 23.7614 23.7614 26 21 26H5C2.23858 26 0 23.7614 0 21V5C0 2.23858 2.23858 0 5 0ZM5 2C3.34315 2 2 3.34315 2 5V21C2 22.6569 3.34315 24 5 24H21C22.6569 24 24 22.6569 24 21V5C24 3.34315 22.6569 2 21 2H5ZM14.5 12C14.2239 12 14 11.7761 14 11.5V8.5C14 8.22386 13.7761 8 13.5 8H12.5C12.2239 8 12 8.22386 12 8.5V11.5C12 11.7761 11.7761 12 11.5 12H8.5C8.22386 12 8 12.2239 8 12.5V13.5C8 13.7761 8.22386 14 8.5 14H11.5C11.7761 14 12 14.2239 12 14.5V17.5C12 17.7761 12.2239 18 12.5 18H13.5C13.7761 18 14 17.7761 14 17.5V14.5C14 14.2239 14.2239 14 14.5 14H17.5C17.7761 14 18 13.7761 18 13.5V12.5C18 12.2239 17.7761 12 17.5 12H14.5ZM18 0H8V2H18V0ZM18 24H8V26H18V24ZM24 18V8H26V18H24ZM0 8V18H2V8H0Z" fill="black"/>
</svg>
