<svg width="24" height="22" viewBox="0 0 24 22" fill="none" xmlns="http://www.w3.org/2000/svg">
<path d="M11.5566 2.38834L12 2.6077L12.4434 2.38834C16.1074 0.575696 18.6853 0.712224 20.3048 1.8036C21.953 2.91431 23 5.26968 23 8.77001C23 10.3187 22.3631 11.8586 21.3099 13.3404C20.2582 14.8201 18.8349 16.1793 17.3762 17.3434C15.922 18.5039 14.4625 19.4471 13.3636 20.101C12.8153 20.4273 12.3594 20.68 12.0425 20.8502C12.028 20.858 12.0139 20.8656 12 20.873C11.9861 20.8656 11.972 20.858 11.9575 20.8502C11.6406 20.68 11.1847 20.4273 10.6364 20.101C9.53753 19.4471 8.07795 18.5039 6.62377 17.3434C5.16513 16.1793 3.74183 14.8201 2.69009 13.3404C1.6369 11.8586 1 10.3187 1 8.77001C1 5.26968 2.04696 2.91432 3.69519 1.80362C5.31475 0.712248 7.89255 0.575722 11.5566 2.38834Z" stroke="black" stroke-width="2"/>
</svg>
