<svg width="23" height="23" viewBox="0 0 23 23" fill="none" xmlns="http://www.w3.org/2000/svg">
<mask id="path-1-inside-1_44_361" fill="white">
<path fill-rule="evenodd" clip-rule="evenodd" d="M19.2507 15.5014C20.0993 13.9914 20.5838 12.2456 20.5838 10.3857C20.5838 4.64983 15.976 0 10.2919 0C4.60785 0 0 4.64983 0 10.3857C0 16.1215 4.60785 20.7714 10.2919 20.7714C11.9165 20.7714 13.4532 20.3915 14.8195 19.715L21.7127 22.8103C22.5259 21.9898 22.3161 22.1975 22.1064 22.4052C21.8966 22.6128 21.6869 22.8205 22.5 22L19.2507 15.5014Z"/>
</mask>
<path d="M19.2507 15.5014L17.5072 14.5216L16.9873 15.4467L17.4619 16.3959L19.2507 15.5014ZM14.8195 19.715L15.6387 17.8905L14.7778 17.504L13.9321 17.9227L14.8195 19.715ZM21.7127 22.8103L20.8935 24.6348L22.1578 25.2025L23.1334 24.2181L21.7127 22.8103ZM22.5 22L23.9206 23.4078L24.9304 22.3888L24.2889 21.1056L22.5 22ZM18.5838 10.3857C18.5838 11.8943 18.1916 13.3036 17.5072 14.5216L20.9943 16.4812C22.007 14.6792 22.5838 12.5969 22.5838 10.3857H18.5838ZM10.2919 2C14.8543 2 18.5838 5.73726 18.5838 10.3857H22.5838C22.5838 3.5624 17.0976 -2 10.2919 -2V2ZM2 10.3857C2 5.73726 5.72948 2 10.2919 2V-2C3.48621 -2 -2 3.5624 -2 10.3857H2ZM10.2919 18.7714C5.72948 18.7714 2 15.0341 2 10.3857H-2C-2 17.209 3.48621 22.7714 10.2919 22.7714V18.7714ZM13.9321 17.9227C12.835 18.4659 11.6014 18.7714 10.2919 18.7714V22.7714C12.2316 22.7714 14.0713 22.3172 15.7069 21.5074L13.9321 17.9227ZM22.532 20.9858L15.6387 17.8905L14.0002 21.5396L20.8935 24.6348L22.532 20.9858ZM23.5136 23.8263C23.567 23.7734 23.6167 23.7243 23.6502 23.6913C23.6693 23.6724 23.6744 23.6676 23.6715 23.6704C23.6705 23.6714 23.6637 23.6779 23.654 23.6868C23.6494 23.6911 23.6392 23.7006 23.6258 23.7125C23.6215 23.7163 23.5805 23.7532 23.5254 23.7962C23.5196 23.8007 23.4107 23.8883 23.2583 23.9719C23.2111 23.997 23.0935 24.0527 23.0225 24.082C22.9119 24.1214 22.608 24.194 22.414 24.215C22.0736 24.206 21.2576 23.9276 20.8475 23.5973C20.5444 23.1833 20.3033 22.385 20.3026 22.0599C20.3401 21.5887 20.5445 21.2536 20.5453 21.2522C20.595 21.1621 20.6409 21.0957 20.6605 21.0679C20.7033 21.007 20.7401 20.9621 20.7515 20.9483C20.7803 20.9133 20.8038 20.8873 20.8093 20.8812C20.8186 20.8709 20.8259 20.863 20.8295 20.8591C20.8344 20.8539 20.7194 20.9714 20.2921 21.4025L23.1334 24.2181C23.5192 23.8287 23.7059 23.6398 23.7568 23.5851C23.7618 23.5797 23.7703 23.5706 23.7805 23.5592C23.7869 23.5521 23.8112 23.5252 23.8404 23.4897C23.852 23.4756 23.8891 23.4305 23.932 23.3694C23.9516 23.3416 23.9976 23.2751 24.0473 23.1849C24.0481 23.1835 24.2525 22.8483 24.29 22.3771C24.2894 22.052 24.0482 21.2537 23.7451 20.8397C23.335 20.5094 22.519 20.2309 22.1786 20.2219C21.9846 20.2429 21.6807 20.3156 21.57 20.355C21.499 20.3843 21.3814 20.44 21.3342 20.4651C21.1817 20.5488 21.0726 20.6365 21.0666 20.6412C21.0111 20.6844 20.9694 20.7219 20.9642 20.7265C20.95 20.7392 20.9387 20.7496 20.9328 20.7551C20.9206 20.7665 20.9104 20.7761 20.9053 20.7811C20.8859 20.7996 20.8625 20.8226 20.8452 20.8396C20.8058 20.8784 20.7506 20.9331 20.6991 20.984L23.5136 23.8263ZM21.0794 20.5922C20.6935 20.9816 20.5069 21.1705 20.456 21.2252C20.4509 21.2306 20.4424 21.2397 20.4322 21.2511C20.4258 21.2582 20.4016 21.2851 20.3723 21.3206C20.3607 21.3347 20.3237 21.3798 20.2807 21.4409C20.2611 21.4687 20.2151 21.5352 20.1654 21.6254C20.1646 21.6268 19.9602 21.962 19.9227 22.4332C19.9234 22.7584 20.1645 23.5566 20.4676 23.9706C20.8777 24.3009 21.6937 24.5794 22.0341 24.5884C22.2282 24.5674 22.532 24.4947 22.6427 24.4553C22.7137 24.426 22.8314 24.3703 22.8785 24.3452C23.0311 24.2615 23.1401 24.1738 23.1462 24.1691C23.2017 24.1259 23.2433 24.0884 23.2485 24.0838C23.2627 24.0711 23.274 24.0607 23.2799 24.0552C23.2922 24.0438 23.3023 24.0342 23.3074 24.0292C23.3268 24.0107 23.3502 23.9877 23.3675 23.9707C23.4069 23.9319 23.4622 23.8772 23.5136 23.8263L20.6991 20.984C20.6457 21.0369 20.5961 21.086 20.5626 21.119C20.5434 21.1379 20.5383 21.1427 20.5413 21.1399C20.5423 21.1389 20.549 21.1325 20.5587 21.1235C20.5633 21.1192 20.5735 21.1097 20.5869 21.0978C20.5912 21.094 20.6322 21.0571 20.6873 21.0141C20.6931 21.0096 20.802 20.922 20.9545 20.8384C21.0016 20.8133 21.1192 20.7576 21.1902 20.7283C21.3009 20.6889 21.6047 20.6163 21.7987 20.5953C22.1391 20.6043 22.9551 20.8827 23.3652 21.213C23.6683 21.627 23.9095 22.4253 23.9101 22.7504C23.8726 23.2216 23.6682 23.5567 23.6675 23.5581C23.6178 23.6482 23.5718 23.7146 23.5523 23.7424C23.5094 23.8033 23.4726 23.8482 23.4612 23.862C23.4325 23.897 23.4089 23.923 23.4035 23.9291C23.3942 23.9394 23.3868 23.9473 23.3832 23.9512C23.3783 23.9564 23.4934 23.8389 23.9206 23.4078L21.0794 20.5922ZM17.4619 16.3959L20.7111 22.8944L24.2889 21.1056L21.0396 14.607L17.4619 16.3959Z" fill="black" mask="url(#path-1-inside-1_44_361)"/>
</svg>
