<svg width="26" height="26" viewBox="0 0 26 26" fill="none" xmlns="http://www.w3.org/2000/svg">
<path fill-rule="evenodd" clip-rule="evenodd" d="M14 0C14.5523 0 15 0.447715 15 1V5.7573C15 6.64821 16.0771 7.09437 16.7071 6.46441L20.071 3.10047C20.4616 2.70995 21.0947 2.70995 21.4853 3.10047L22.8995 4.51468C23.29 4.90521 23.29 5.53837 22.8995 5.9289L19.5355 9.29289C18.9055 9.92286 19.3517 11 20.2426 11H25C25.5523 11 26 11.4477 26 12V14C26 14.5523 25.5523 15 25 15H20.2426C19.3517 15 18.9056 16.0771 19.5355 16.7071L22.8995 20.071C23.29 20.4616 23.29 21.0947 22.8995 21.4853L21.4853 22.8995C21.0947 23.29 20.4616 23.29 20.071 22.8995L16.7071 19.5355C16.0771 18.9056 15 19.3517 15 20.2426V25C15 25.5523 14.5523 26 14 26H12C11.4477 26 11 25.5523 11 25V20.2426C11 19.3517 9.92286 18.9055 9.29289 19.5355L5.92891 22.8995C5.53838 23.29 4.90522 23.29 4.5147 22.8995L3.10048 21.4852C2.70996 21.0947 2.70996 20.4616 3.10048 20.071L6.46441 16.7071C7.09437 16.0771 6.64821 15 5.7573 15H1C0.447716 15 0 14.5523 0 14V12C0 11.4477 0.447715 11 1 11H5.75736C6.64826 11 7.09443 9.92286 6.46446 9.29289L3.10048 5.92891C2.70995 5.53838 2.70995 4.90522 3.10048 4.5147L4.51469 3.10048C4.90522 2.70996 5.53838 2.70996 5.92891 3.10048L9.29289 6.46447C9.92286 7.09444 11 6.64827 11 5.75736V1C11 0.447715 11.4477 0 12 0H14ZM13 15C14.1046 15 15 14.1046 15 13C15 11.8954 14.1046 11 13 11C11.8954 11 11 11.8954 11 13C11 14.1046 11.8954 15 13 15Z" fill="black"/>
</svg>
