<svg width="25" height="26" viewBox="0 0 25 26" fill="none" xmlns="http://www.w3.org/2000/svg">
<path fill-rule="evenodd" clip-rule="evenodd" d="M21 6C22.1046 6 23 5.10457 23 4C23 2.89543 22.1046 2 21 2C19.8954 2 19 2.89543 19 4C19 5.10457 19.8954 6 21 6ZM21 8C23.2091 8 25 6.20914 25 4C25 1.79086 23.2091 0 21 0C18.7909 0 17 1.79086 17 4C17 4.2476 17.0225 4.48994 17.0656 4.7251L6.63165 9.98755C5.9283 9.3726 5.00766 9 4 9C1.79086 9 0 10.7909 0 13C0 15.2091 1.79086 17 4 17C5.2132 17 6.30026 16.4599 7.03383 15.607L17.0337 21.4783C17.0115 21.6491 17 21.8232 17 22C17 24.2091 18.7909 26 21 26C23.2091 26 25 24.2091 25 22C25 19.7909 23.2091 18 21 18C19.6886 18 18.5246 18.6311 17.7951 19.6061L7.91852 13.8072C7.97194 13.5465 8 13.2765 8 13C8 12.5279 7.91821 12.0749 7.76803 11.6544L17.9094 6.53949C18.643 7.43129 19.7551 8 21 8ZM21 24C22.1046 24 23 23.1046 23 22C23 20.8954 22.1046 20 21 20C19.8954 20 19 20.8954 19 22C19 23.1046 19.8954 24 21 24ZM6 13C6 14.1046 5.10457 15 4 15C2.89543 15 2 14.1046 2 13C2 11.8954 2.89543 11 4 11C5.10457 11 6 11.8954 6 13Z" fill="black"/>
</svg>
